<svg xmlns="http://www.w3.org/2000/svg" width="760" height="280" viewBox="0 0 760 280" role="img" aria-label="Weekly downloads of the DuckDB mssql community extension">
  <defs>
    <linearGradient id="area" x1="0" y1="0" x2="0" y2="1">
      <stop offset="0%" stop-color="#f6c344" stop-opacity="0.35"/>
      <stop offset="100%" stop-color="#f6c344" stop-opacity="0.02"/>
    </linearGradient>
  </defs>
  <rect x="0" y="0" width="760" height="280" rx="10" fill="#ffffff" stroke="#e3e8ee"/>
  <text x="56" y="26" font-size="15" font-weight="700" fill="#2b3a4a">DuckDB mssql extension &#8212; weekly downloads</text>
  <text x="736" y="26" font-size="12" fill="#8a94a6" text-anchor="end">52,599/wk total</text>
  <line x1="56.0" y1="232.0" x2="736.0" y2="232.0" stroke="#e3e8ee" stroke-width="1"/>
  <line x1="56.0" y1="185.0" x2="736.0" y2="185.0" stroke="#e3e8ee" stroke-width="1"/>
  <line x1="56.0" y1="138.0" x2="736.0" y2="138.0" stroke="#e3e8ee" stroke-width="1"/>
  <line x1="56.0" y1="91.0" x2="736.0" y2="91.0" stroke="#e3e8ee" stroke-width="1"/>
  <line x1="56.0" y1="44.0" x2="736.0" y2="44.0" stroke="#e3e8ee" stroke-width="1"/>
  <text x="48.0" y="232.0" font-size="11" fill="#8a94a6" text-anchor="end" dominant-baseline="middle">0</text>
  <text x="48.0" y="185.0" font-size="11" fill="#8a94a6" text-anchor="end" dominant-baseline="middle">25k</text>
  <text x="48.0" y="138.0" font-size="11" fill="#8a94a6" text-anchor="end" dominant-baseline="middle">50k</text>
  <text x="48.0" y="91.0" font-size="11" fill="#8a94a6" text-anchor="end" dominant-baseline="middle">75k</text>
  <text x="48.0" y="44.0" font-size="11" fill="#8a94a6" text-anchor="end" dominant-baseline="middle">100k</text>
  <polygon points="56.0,232.0 56.0,231.4 76.6,230.6 97.2,230.6 117.8,230.3 138.4,229.7 159.0,229.3 179.6,224.9 200.2,221.5 220.8,221.8 241.5,208.5 262.1,218.4 282.7,227.3 303.3,227.4 323.9,227.4 344.5,226.9 365.1,226.9 385.7,225.9 406.3,225.0 426.9,223.8 447.5,224.3 468.1,221.4 488.7,218.4 509.3,221.1 529.9,218.9 550.5,217.0 571.2,218.6 591.8,205.6 612.4,198.7 633.0,141.6 653.6,128.8 674.2,122.4 694.8,120.6 715.4,133.5 736.0,133.1 736.0,232.0" fill="url(#area)"/>
  <polyline points="56.0,231.4 76.6,230.6 97.2,230.6 117.8,230.3 138.4,229.7 159.0,229.3 179.6,224.9 200.2,221.5 220.8,221.8 241.5,208.5 262.1,218.4 282.7,227.3 303.3,227.4 323.9,227.4 344.5,226.9 365.1,226.9 385.7,225.9 406.3,225.0 426.9,223.8 447.5,224.3 468.1,221.4 488.7,218.4 509.3,221.1 529.9,218.9 550.5,217.0 571.2,218.6 591.8,205.6 612.4,198.7 633.0,141.6 653.6,128.8 674.2,122.4 694.8,120.6 715.4,133.5 736.0,133.1" fill="none" stroke="#f6c344" stroke-width="2.5" stroke-linejoin="round" stroke-linecap="round"/>
  <circle cx="56.0" cy="231.4" r="2.6" fill="#fff" stroke="#f6c344" stroke-width="2"/>
  <circle cx="76.6" cy="230.6" r="2.6" fill="#fff" stroke="#f6c344" stroke-width="2"/>
  <circle cx="97.2" cy="230.6" r="2.6" fill="#fff" stroke="#f6c344" stroke-width="2"/>
  <circle cx="117.8" cy="230.3" r="2.6" fill="#fff" stroke="#f6c344" stroke-width="2"/>
  <circle cx="138.4" cy="229.7" r="2.6" fill="#fff" stroke="#f6c344" stroke-width="2"/>
  <circle cx="159.0" cy="229.3" r="2.6" fill="#fff" stroke="#f6c344" stroke-width="2"/>
  <circle cx="179.6" cy="224.9" r="2.6" fill="#fff" stroke="#f6c344" stroke-width="2"/>
  <circle cx="200.2" cy="221.5" r="2.6" fill="#fff" stroke="#f6c344" stroke-width="2"/>
  <circle cx="220.8" cy="221.8" r="2.6" fill="#fff" stroke="#f6c344" stroke-width="2"/>
  <circle cx="241.5" cy="208.5" r="2.6" fill="#fff" stroke="#f6c344" stroke-width="2"/>
  <circle cx="262.1" cy="218.4" r="2.6" fill="#fff" stroke="#f6c344" stroke-width="2"/>
  <circle cx="282.7" cy="227.3" r="2.6" fill="#fff" stroke="#f6c344" stroke-width="2"/>
  <circle cx="303.3" cy="227.4" r="2.6" fill="#fff" stroke="#f6c344" stroke-width="2"/>
  <circle cx="323.9" cy="227.4" r="2.6" fill="#fff" stroke="#f6c344" stroke-width="2"/>
  <circle cx="344.5" cy="226.9" r="2.6" fill="#fff" stroke="#f6c344" stroke-width="2"/>
  <circle cx="365.1" cy="226.9" r="2.6" fill="#fff" stroke="#f6c344" stroke-width="2"/>
  <circle cx="385.7" cy="225.9" r="2.6" fill="#fff" stroke="#f6c344" stroke-width="2"/>
  <circle cx="406.3" cy="225.0" r="2.6" fill="#fff" stroke="#f6c344" stroke-width="2"/>
  <circle cx="426.9" cy="223.8" r="2.6" fill="#fff" stroke="#f6c344" stroke-width="2"/>
  <circle cx="447.5" cy="224.3" r="2.6" fill="#fff" stroke="#f6c344" stroke-width="2"/>
  <circle cx="468.1" cy="221.4" r="2.6" fill="#fff" stroke="#f6c344" stroke-width="2"/>
  <circle cx="488.7" cy="218.4" r="2.6" fill="#fff" stroke="#f6c344" stroke-width="2"/>
  <circle cx="509.3" cy="221.1" r="2.6" fill="#fff" stroke="#f6c344" stroke-width="2"/>
  <circle cx="529.9" cy="218.9" r="2.6" fill="#fff" stroke="#f6c344" stroke-width="2"/>
  <circle cx="550.5" cy="217.0" r="2.6" fill="#fff" stroke="#f6c344" stroke-width="2"/>
  <circle cx="571.2" cy="218.6" r="2.6" fill="#fff" stroke="#f6c344" stroke-width="2"/>
  <circle cx="591.8" cy="205.6" r="2.6" fill="#fff" stroke="#f6c344" stroke-width="2"/>
  <circle cx="612.4" cy="198.7" r="2.6" fill="#fff" stroke="#f6c344" stroke-width="2"/>
  <circle cx="633.0" cy="141.6" r="2.6" fill="#fff" stroke="#f6c344" stroke-width="2"/>
  <circle cx="653.6" cy="128.8" r="2.6" fill="#fff" stroke="#f6c344" stroke-width="2"/>
  <circle cx="674.2" cy="122.4" r="2.6" fill="#fff" stroke="#f6c344" stroke-width="2"/>
  <circle cx="694.8" cy="120.6" r="2.6" fill="#fff" stroke="#f6c344" stroke-width="2"/>
  <circle cx="715.4" cy="133.5" r="2.6" fill="#fff" stroke="#f6c344" stroke-width="2"/>
  <circle cx="736.0" cy="133.1" r="2.6" fill="#fff" stroke="#f6c344" stroke-width="2"/>
  <circle cx="736.0" cy="133.1" r="4.5" fill="#f6c344"/><text x="736.0" y="121.1" font-size="13" font-weight="700" fill="#d4960b" text-anchor="end">52,599</text>
  <text x="56.0" y="250.0" font-size="10" fill="#8a94a6" text-anchor="middle">01-25</text>
  <text x="138.4" y="250.0" font-size="10" fill="#8a94a6" text-anchor="middle">02-22</text>
  <text x="220.8" y="250.0" font-size="10" fill="#8a94a6" text-anchor="middle">03-22</text>
  <text x="303.3" y="250.0" font-size="10" fill="#8a94a6" text-anchor="middle">04-19</text>
  <text x="385.7" y="250.0" font-size="10" fill="#8a94a6" text-anchor="middle">05-17</text>
  <text x="468.1" y="250.0" font-size="10" fill="#8a94a6" text-anchor="middle">06-14</text>
  <text x="550.5" y="250.0" font-size="10" fill="#8a94a6" text-anchor="middle">07-12</text>
  <text x="633.0" y="250.0" font-size="10" fill="#8a94a6" text-anchor="middle">08-09</text>
  <text x="715.4" y="250.0" font-size="10" fill="#8a94a6" text-anchor="middle">09-06</text>
  <text x="736.0" y="250.0" font-size="10" fill="#8a94a6" text-anchor="middle">09-07</text>
  <text x="56" y="270" font-size="10" fill="#aab2c0">Source: duckdb.org/community_extensions/download_metrics &#183; downloads in the trailing 7 days, sampled weekly</text>
</svg>
