<svg xmlns="http://www.w3.org/2000/svg" width="760" height="280" viewBox="0 0 760 280" role="img" aria-label="Weekly downloads of the DuckDB mssql community extension">
  <defs>
    <linearGradient id="area" x1="0" y1="0" x2="0" y2="1">
      <stop offset="0%" stop-color="#f6c344" stop-opacity="0.35"/>
      <stop offset="100%" stop-color="#f6c344" stop-opacity="0.02"/>
    </linearGradient>
  </defs>
  <rect x="0" y="0" width="760" height="280" rx="10" fill="#ffffff" stroke="#e3e8ee"/>
  <text x="56" y="26" font-size="15" font-weight="700" fill="#2b3a4a">DuckDB mssql extension &#8212; weekly downloads</text>
  <text x="736" y="26" font-size="12" fill="#8a94a6" text-anchor="end">22,774/wk total</text>
  <line x1="56.0" y1="232.0" x2="736.0" y2="232.0" stroke="#e3e8ee" stroke-width="1"/>
  <line x1="56.0" y1="185.0" x2="736.0" y2="185.0" stroke="#e3e8ee" stroke-width="1"/>
  <line x1="56.0" y1="138.0" x2="736.0" y2="138.0" stroke="#e3e8ee" stroke-width="1"/>
  <line x1="56.0" y1="91.0" x2="736.0" y2="91.0" stroke="#e3e8ee" stroke-width="1"/>
  <line x1="56.0" y1="44.0" x2="736.0" y2="44.0" stroke="#e3e8ee" stroke-width="1"/>
  <text x="48.0" y="232.0" font-size="11" fill="#8a94a6" text-anchor="end" dominant-baseline="middle">0</text>
  <text x="48.0" y="185.0" font-size="11" fill="#8a94a6" text-anchor="end" dominant-baseline="middle">6.2k</text>
  <text x="48.0" y="138.0" font-size="11" fill="#8a94a6" text-anchor="end" dominant-baseline="middle">12.5k</text>
  <text x="48.0" y="91.0" font-size="11" fill="#8a94a6" text-anchor="end" dominant-baseline="middle">18.8k</text>
  <text x="48.0" y="44.0" font-size="11" fill="#8a94a6" text-anchor="end" dominant-baseline="middle">25k</text>
  <polygon points="56.0,232.0 56.0,229.7 80.3,226.3 104.6,226.4 128.9,225.1 153.1,222.8 177.4,221.0 201.7,203.7 226.0,190.2 250.3,191.1 274.6,138.2 298.9,177.5 323.1,213.1 347.4,213.6 371.7,213.5 396.0,211.5 420.3,211.7 444.6,207.6 468.9,204.0 493.1,199.0 517.4,201.1 541.7,189.8 566.0,177.5 590.3,188.4 614.6,179.7 638.9,171.8 663.1,178.3 687.4,126.3 711.7,98.9 736.0,60.7 736.0,232.0" fill="url(#area)"/>
  <polyline points="56.0,229.7 80.3,226.3 104.6,226.4 128.9,225.1 153.1,222.8 177.4,221.0 201.7,203.7 226.0,190.2 250.3,191.1 274.6,138.2 298.9,177.5 323.1,213.1 347.4,213.6 371.7,213.5 396.0,211.5 420.3,211.7 444.6,207.6 468.9,204.0 493.1,199.0 517.4,201.1 541.7,189.8 566.0,177.5 590.3,188.4 614.6,179.7 638.9,171.8 663.1,178.3 687.4,126.3 711.7,98.9 736.0,60.7" fill="none" stroke="#f6c344" stroke-width="2.5" stroke-linejoin="round" stroke-linecap="round"/>
  <circle cx="56.0" cy="229.7" r="2.6" fill="#fff" stroke="#f6c344" stroke-width="2"/>
  <circle cx="80.3" cy="226.3" r="2.6" fill="#fff" stroke="#f6c344" stroke-width="2"/>
  <circle cx="104.6" cy="226.4" r="2.6" fill="#fff" stroke="#f6c344" stroke-width="2"/>
  <circle cx="128.9" cy="225.1" r="2.6" fill="#fff" stroke="#f6c344" stroke-width="2"/>
  <circle cx="153.1" cy="222.8" r="2.6" fill="#fff" stroke="#f6c344" stroke-width="2"/>
  <circle cx="177.4" cy="221.0" r="2.6" fill="#fff" stroke="#f6c344" stroke-width="2"/>
  <circle cx="201.7" cy="203.7" r="2.6" fill="#fff" stroke="#f6c344" stroke-width="2"/>
  <circle cx="226.0" cy="190.2" r="2.6" fill="#fff" stroke="#f6c344" stroke-width="2"/>
  <circle cx="250.3" cy="191.1" r="2.6" fill="#fff" stroke="#f6c344" stroke-width="2"/>
  <circle cx="274.6" cy="138.2" r="2.6" fill="#fff" stroke="#f6c344" stroke-width="2"/>
  <circle cx="298.9" cy="177.5" r="2.6" fill="#fff" stroke="#f6c344" stroke-width="2"/>
  <circle cx="323.1" cy="213.1" r="2.6" fill="#fff" stroke="#f6c344" stroke-width="2"/>
  <circle cx="347.4" cy="213.6" r="2.6" fill="#fff" stroke="#f6c344" stroke-width="2"/>
  <circle cx="371.7" cy="213.5" r="2.6" fill="#fff" stroke="#f6c344" stroke-width="2"/>
  <circle cx="396.0" cy="211.5" r="2.6" fill="#fff" stroke="#f6c344" stroke-width="2"/>
  <circle cx="420.3" cy="211.7" r="2.6" fill="#fff" stroke="#f6c344" stroke-width="2"/>
  <circle cx="444.6" cy="207.6" r="2.6" fill="#fff" stroke="#f6c344" stroke-width="2"/>
  <circle cx="468.9" cy="204.0" r="2.6" fill="#fff" stroke="#f6c344" stroke-width="2"/>
  <circle cx="493.1" cy="199.0" r="2.6" fill="#fff" stroke="#f6c344" stroke-width="2"/>
  <circle cx="517.4" cy="201.1" r="2.6" fill="#fff" stroke="#f6c344" stroke-width="2"/>
  <circle cx="541.7" cy="189.8" r="2.6" fill="#fff" stroke="#f6c344" stroke-width="2"/>
  <circle cx="566.0" cy="177.5" r="2.6" fill="#fff" stroke="#f6c344" stroke-width="2"/>
  <circle cx="590.3" cy="188.4" r="2.6" fill="#fff" stroke="#f6c344" stroke-width="2"/>
  <circle cx="614.6" cy="179.7" r="2.6" fill="#fff" stroke="#f6c344" stroke-width="2"/>
  <circle cx="638.9" cy="171.8" r="2.6" fill="#fff" stroke="#f6c344" stroke-width="2"/>
  <circle cx="663.1" cy="178.3" r="2.6" fill="#fff" stroke="#f6c344" stroke-width="2"/>
  <circle cx="687.4" cy="126.3" r="2.6" fill="#fff" stroke="#f6c344" stroke-width="2"/>
  <circle cx="711.7" cy="98.9" r="2.6" fill="#fff" stroke="#f6c344" stroke-width="2"/>
  <circle cx="736.0" cy="60.7" r="2.6" fill="#fff" stroke="#f6c344" stroke-width="2"/>
  <circle cx="736.0" cy="60.7" r="4.5" fill="#f6c344"/><text x="736.0" y="48.7" font-size="13" font-weight="700" fill="#d4960b" text-anchor="end">22,774</text>
  <text x="56.0" y="250.0" font-size="10" fill="#8a94a6" text-anchor="middle">01-25</text>
  <text x="128.9" y="250.0" font-size="10" fill="#8a94a6" text-anchor="middle">02-15</text>
  <text x="201.7" y="250.0" font-size="10" fill="#8a94a6" text-anchor="middle">03-08</text>
  <text x="274.6" y="250.0" font-size="10" fill="#8a94a6" text-anchor="middle">03-29</text>
  <text x="347.4" y="250.0" font-size="10" fill="#8a94a6" text-anchor="middle">04-19</text>
  <text x="420.3" y="250.0" font-size="10" fill="#8a94a6" text-anchor="middle">05-10</text>
  <text x="493.1" y="250.0" font-size="10" fill="#8a94a6" text-anchor="middle">05-31</text>
  <text x="566.0" y="250.0" font-size="10" fill="#8a94a6" text-anchor="middle">06-21</text>
  <text x="638.9" y="250.0" font-size="10" fill="#8a94a6" text-anchor="middle">07-12</text>
  <text x="711.7" y="250.0" font-size="10" fill="#8a94a6" text-anchor="middle">08-02</text>
  <text x="736.0" y="250.0" font-size="10" fill="#8a94a6" text-anchor="middle">08-03</text>
  <text x="56" y="270" font-size="10" fill="#aab2c0">Source: duckdb.org/community_extensions/download_metrics &#183; downloads in the trailing 7 days, sampled weekly</text>
</svg>
