<svg xmlns="http://www.w3.org/2000/svg" width="760" height="280" viewBox="0 0 760 280" role="img" aria-label="Weekly downloads of the DuckDB mssql community extension">
  <defs>
    <linearGradient id="area" x1="0" y1="0" x2="0" y2="1">
      <stop offset="0%" stop-color="#f6c344" stop-opacity="0.35"/>
      <stop offset="100%" stop-color="#f6c344" stop-opacity="0.02"/>
    </linearGradient>
  </defs>
  <rect x="0" y="0" width="760" height="280" rx="10" fill="#ffffff" stroke="#e3e8ee"/>
  <text x="56" y="26" font-size="15" font-weight="700" fill="#2b3a4a">DuckDB mssql extension &#8212; weekly downloads</text>
  <text x="736" y="26" font-size="12" fill="#8a94a6" text-anchor="end">56,078/wk total</text>
  <line x1="56.0" y1="232.0" x2="736.0" y2="232.0" stroke="#e3e8ee" stroke-width="1"/>
  <line x1="56.0" y1="185.0" x2="736.0" y2="185.0" stroke="#e3e8ee" stroke-width="1"/>
  <line x1="56.0" y1="138.0" x2="736.0" y2="138.0" stroke="#e3e8ee" stroke-width="1"/>
  <line x1="56.0" y1="91.0" x2="736.0" y2="91.0" stroke="#e3e8ee" stroke-width="1"/>
  <line x1="56.0" y1="44.0" x2="736.0" y2="44.0" stroke="#e3e8ee" stroke-width="1"/>
  <text x="48.0" y="232.0" font-size="11" fill="#8a94a6" text-anchor="end" dominant-baseline="middle">0</text>
  <text x="48.0" y="185.0" font-size="11" fill="#8a94a6" text-anchor="end" dominant-baseline="middle">25k</text>
  <text x="48.0" y="138.0" font-size="11" fill="#8a94a6" text-anchor="end" dominant-baseline="middle">50k</text>
  <text x="48.0" y="91.0" font-size="11" fill="#8a94a6" text-anchor="end" dominant-baseline="middle">75k</text>
  <text x="48.0" y="44.0" font-size="11" fill="#8a94a6" text-anchor="end" dominant-baseline="middle">100k</text>
  <polygon points="56.0,232.0 56.0,231.4 78.7,230.6 101.3,230.6 124.0,230.3 146.7,229.7 169.3,229.3 192.0,224.9 214.7,221.5 237.3,221.8 260.0,208.5 282.7,218.4 305.3,227.3 328.0,227.4 350.7,227.4 373.3,226.9 396.0,226.9 418.7,225.9 441.3,225.0 464.0,223.8 486.7,224.3 509.3,221.4 532.0,218.4 554.7,221.1 577.3,218.9 600.0,217.0 622.7,218.6 645.3,205.6 668.0,198.7 690.7,141.6 713.3,128.8 736.0,126.6 736.0,232.0" fill="url(#area)"/>
  <polyline points="56.0,231.4 78.7,230.6 101.3,230.6 124.0,230.3 146.7,229.7 169.3,229.3 192.0,224.9 214.7,221.5 237.3,221.8 260.0,208.5 282.7,218.4 305.3,227.3 328.0,227.4 350.7,227.4 373.3,226.9 396.0,226.9 418.7,225.9 441.3,225.0 464.0,223.8 486.7,224.3 509.3,221.4 532.0,218.4 554.7,221.1 577.3,218.9 600.0,217.0 622.7,218.6 645.3,205.6 668.0,198.7 690.7,141.6 713.3,128.8 736.0,126.6" fill="none" stroke="#f6c344" stroke-width="2.5" stroke-linejoin="round" stroke-linecap="round"/>
  <circle cx="56.0" cy="231.4" r="2.6" fill="#fff" stroke="#f6c344" stroke-width="2"/>
  <circle cx="78.7" cy="230.6" r="2.6" fill="#fff" stroke="#f6c344" stroke-width="2"/>
  <circle cx="101.3" cy="230.6" r="2.6" fill="#fff" stroke="#f6c344" stroke-width="2"/>
  <circle cx="124.0" cy="230.3" r="2.6" fill="#fff" stroke="#f6c344" stroke-width="2"/>
  <circle cx="146.7" cy="229.7" r="2.6" fill="#fff" stroke="#f6c344" stroke-width="2"/>
  <circle cx="169.3" cy="229.3" r="2.6" fill="#fff" stroke="#f6c344" stroke-width="2"/>
  <circle cx="192.0" cy="224.9" r="2.6" fill="#fff" stroke="#f6c344" stroke-width="2"/>
  <circle cx="214.7" cy="221.5" r="2.6" fill="#fff" stroke="#f6c344" stroke-width="2"/>
  <circle cx="237.3" cy="221.8" r="2.6" fill="#fff" stroke="#f6c344" stroke-width="2"/>
  <circle cx="260.0" cy="208.5" r="2.6" fill="#fff" stroke="#f6c344" stroke-width="2"/>
  <circle cx="282.7" cy="218.4" r="2.6" fill="#fff" stroke="#f6c344" stroke-width="2"/>
  <circle cx="305.3" cy="227.3" r="2.6" fill="#fff" stroke="#f6c344" stroke-width="2"/>
  <circle cx="328.0" cy="227.4" r="2.6" fill="#fff" stroke="#f6c344" stroke-width="2"/>
  <circle cx="350.7" cy="227.4" r="2.6" fill="#fff" stroke="#f6c344" stroke-width="2"/>
  <circle cx="373.3" cy="226.9" r="2.6" fill="#fff" stroke="#f6c344" stroke-width="2"/>
  <circle cx="396.0" cy="226.9" r="2.6" fill="#fff" stroke="#f6c344" stroke-width="2"/>
  <circle cx="418.7" cy="225.9" r="2.6" fill="#fff" stroke="#f6c344" stroke-width="2"/>
  <circle cx="441.3" cy="225.0" r="2.6" fill="#fff" stroke="#f6c344" stroke-width="2"/>
  <circle cx="464.0" cy="223.8" r="2.6" fill="#fff" stroke="#f6c344" stroke-width="2"/>
  <circle cx="486.7" cy="224.3" r="2.6" fill="#fff" stroke="#f6c344" stroke-width="2"/>
  <circle cx="509.3" cy="221.4" r="2.6" fill="#fff" stroke="#f6c344" stroke-width="2"/>
  <circle cx="532.0" cy="218.4" r="2.6" fill="#fff" stroke="#f6c344" stroke-width="2"/>
  <circle cx="554.7" cy="221.1" r="2.6" fill="#fff" stroke="#f6c344" stroke-width="2"/>
  <circle cx="577.3" cy="218.9" r="2.6" fill="#fff" stroke="#f6c344" stroke-width="2"/>
  <circle cx="600.0" cy="217.0" r="2.6" fill="#fff" stroke="#f6c344" stroke-width="2"/>
  <circle cx="622.7" cy="218.6" r="2.6" fill="#fff" stroke="#f6c344" stroke-width="2"/>
  <circle cx="645.3" cy="205.6" r="2.6" fill="#fff" stroke="#f6c344" stroke-width="2"/>
  <circle cx="668.0" cy="198.7" r="2.6" fill="#fff" stroke="#f6c344" stroke-width="2"/>
  <circle cx="690.7" cy="141.6" r="2.6" fill="#fff" stroke="#f6c344" stroke-width="2"/>
  <circle cx="713.3" cy="128.8" r="2.6" fill="#fff" stroke="#f6c344" stroke-width="2"/>
  <circle cx="736.0" cy="126.6" r="2.6" fill="#fff" stroke="#f6c344" stroke-width="2"/>
  <circle cx="736.0" cy="126.6" r="4.5" fill="#f6c344"/><text x="736.0" y="114.6" font-size="13" font-weight="700" fill="#d4960b" text-anchor="end">56,078</text>
  <text x="56.0" y="250.0" font-size="10" fill="#8a94a6" text-anchor="middle">01-25</text>
  <text x="124.0" y="250.0" font-size="10" fill="#8a94a6" text-anchor="middle">02-15</text>
  <text x="192.0" y="250.0" font-size="10" fill="#8a94a6" text-anchor="middle">03-08</text>
  <text x="260.0" y="250.0" font-size="10" fill="#8a94a6" text-anchor="middle">03-29</text>
  <text x="328.0" y="250.0" font-size="10" fill="#8a94a6" text-anchor="middle">04-19</text>
  <text x="396.0" y="250.0" font-size="10" fill="#8a94a6" text-anchor="middle">05-10</text>
  <text x="464.0" y="250.0" font-size="10" fill="#8a94a6" text-anchor="middle">05-31</text>
  <text x="532.0" y="250.0" font-size="10" fill="#8a94a6" text-anchor="middle">06-21</text>
  <text x="600.0" y="250.0" font-size="10" fill="#8a94a6" text-anchor="middle">07-12</text>
  <text x="668.0" y="250.0" font-size="10" fill="#8a94a6" text-anchor="middle">08-02</text>
  <text x="736.0" y="250.0" font-size="10" fill="#8a94a6" text-anchor="middle">08-17</text>
  <text x="56" y="270" font-size="10" fill="#aab2c0">Source: duckdb.org/community_extensions/download_metrics &#183; downloads in the trailing 7 days, sampled weekly</text>
</svg>
